<?xml version="1.0" standalone="no"?>
<!DOCTYPE svg PUBLIC "-//W3C//DTD SVG 1.1//EN" "http://www.w3.org/Graphics/SVG/1.1/DTD/svg11.dtd" >
<svg xmlns="http://www.w3.org/2000/svg">
<metadata></metadata>
<defs>
<font id="a_avantebsitalic" horiz-adv-x="1183" >
<font-face units-per-em="2048" ascent="1638" descent="-410" />
<missing-glyph horiz-adv-x="573" />
<glyph horiz-adv-x="0" />
<glyph unicode="&#xd;" horiz-adv-x="573" />
<glyph unicode=" "  horiz-adv-x="573" />
<glyph unicode="&#x09;" horiz-adv-x="573" />
<glyph unicode="&#xa0;" horiz-adv-x="573" />
<glyph unicode="!" horiz-adv-x="589" d="M90 0l35 219h178l-35 -219h-178zM147 369l177 1106h178l-176 -1106h-179z" />
<glyph unicode="&#x22;" horiz-adv-x="610" d="M49 897l86 551h123l-86 -551h-123zM350 897l86 551h125l-86 -551h-125z" />
<glyph unicode="#" horiz-adv-x="1595" d="M94 461l43 131h324l100 289h-340l47 129h338l168 467h150l-166 -467h282l168 467h150l-166 -467h311l-45 -129h-313l-103 -289h332l-45 -131h-330l-168 -465h-147l164 465h-287l-164 -465h-147l160 465h-316zM606 590h287l106 291h-288z" />
<glyph unicode="$" horiz-adv-x="1185" d="M86 340q0 41 6 84h168q-2 -20 -2 -41q0 -205 225 -205q127 0 209 89t82 218q0 96 -74 146q-43 29 -163 61q-305 82 -306 305q0 176 107.5 307.5t282.5 159.5l34 217h160l-35 -219q250 -39 250 -301q0 -25 -2 -51h-176v20q0 80 -50 125t-132 45q-104 0 -179 -74.5 t-75 -181.5q0 -94 114 -143q96 -29 195 -59q240 -94 240 -314q0 -184 -115 -333q-121 -156 -299 -181l-43 -264h-160l41 254q-141 18 -222 106.5t-81 229.5z" />
<glyph unicode="%" horiz-adv-x="1822" d="M147 1090q0 166 125 289.5t291 123.5q131 0 220 -85t89 -216q0 -162 -129.5 -288t-291.5 -126q-131 0 -217.5 84t-86.5 218zM289 1114q0 -78 53 -128t131 -50q98 0 173 72.5t75 171.5q0 80 -52.5 130t-129.5 50q-96 0 -173 -75t-77 -171zM334 -33l1030 1536h125 l-1028 -1536h-127zM952 272q0 166 129 290t293 124q131 0 217 -84t86 -215q0 -166 -124.5 -291t-290.5 -125q-131 0 -220.5 86t-89.5 215zM1100 295q0 -80 52 -130t130 -50q98 0 172 75.5t74 174.5q0 78 -50.5 126t-127.5 48q-100 0 -175 -72t-75 -172z" />
<glyph unicode="&#x26;" horiz-adv-x="1437" d="M76 340q0 289 364 494q-133 121 -133 258q0 164 125 283.5t289 119.5q121 0 202 -84t81 -205q0 -229 -302 -389l213 -231l205 379h199l-281 -508l299 -312l-139 -133l-264 275q-219 -315 -492 -316q-158 0 -262 106.5t-104 262.5zM268 369q0 -88 56.5 -147.5t144.5 -59.5 q190 0 342 254l-270 301q-272 -145 -273 -348zM487 1116q0 -92 115 -190q217 102 217 254q0 59 -38 99t-99 40q-82 0 -138.5 -60.5t-56.5 -142.5z" />
<glyph unicode="'" horiz-adv-x="303" d="M51 897l86 551h119l-86 -551h-119z" />
<glyph unicode="(" horiz-adv-x="563" d="M55 16q0 76 17 179l108 694q70 451 484 614l-37 -231q-131 -59 -189 -168q-41 -80 -67 -248l-99 -618q-18 -121 -18 -185q0 -178 139 -262l-37 -225q-301 133 -301 450z" />
<glyph unicode=")" horiz-adv-x="563" d="M-100 -434l37 225q135 68 192 184q41 82 70 263l100 632q16 98 16 156q0 172 -145 246l37 231q299 -137 299 -463q0 -70 -12 -151l-109 -694q-39 -248 -145 -390q-113 -149 -340 -239z" />
<glyph unicode="*" horiz-adv-x="1028" d="M113 1118l49 142l284 -99v309h136v-309l284 99l52 -142l-302 -80l203 -254l-119 -88l-186 265l-182 -265l-123 86l201 256z" />
<glyph unicode="+" horiz-adv-x="1732" d="M262 557v121h543v557h123v-557h542v-121h-542v-557h-123v557h-543z" />
<glyph unicode="," horiz-adv-x="581" d="M164 -250l18 111q74 16 94 149h-69l35 221h178l-35 -211q-39 -233 -221 -270z" />
<glyph unicode="-" horiz-adv-x="673" d="M92 471v166h492v-166h-492z" />
<glyph unicode="." horiz-adv-x="581" d="M180 10l37 230h182l-37 -230h-182z" />
<glyph unicode="/" horiz-adv-x="563" d="M-188 -193l755 1696h127l-753 -1696h-129z" />
<glyph unicode="0" d="M47 381q0 61 10 133l70 444q39 250 184 394q156 152 402 151q201 0 313.5 -109.5t112.5 -308.5q0 -57 -11 -118l-73 -459q-41 -248 -185 -387q-153 -150 -399 -150q-424 0 -424 410zM240 389q0 -233 256 -233q301 0 352 329l78 504q8 55 8 98q0 229 -252 230 q-301 0 -352 -328l-84 -534q-6 -35 -6 -66z" />
<glyph unicode="1" d="M135 0l29 186h260l180 1133h-198l24 156h395l-204 -1289h245l-28 -186h-703z" />
<glyph unicode="2" d="M8 0l31 197l604 505q242 203 266 336q6 29 6 64q0 217 -241 217q-137 0 -223 -92q-80 -82 -103 -223h-182q35 221 184.5 360t370.5 139q178 0 283.5 -92t105.5 -268q0 -160 -78 -285q-63 -100 -205 -215l-559 -453h699l-31 -190h-928z" />
<glyph unicode="3" d="M63 381q1 47 9 96h194q-8 -51 -8 -94q0 -231 227 -231q168 0 263 114q88 106 88 277q0 262 -267 262q-47 0 -143 -29l-55 119l448 397h-530l28 183h787l-27 -168l-389 -334q350 -47 350 -381q0 -66 -12 -135q-33 -201 -195.5 -343.5t-365.5 -142.5q-184 0 -293 113 t-109 297z" />
<glyph unicode="4" d="M16 262l29 176l815 1037h193l-166 -1043h151l-26 -170h-152l-41 -262h-188l41 262h-656zM221 432h477l125 782z" />
<glyph unicode="5" d="M33 362q0 37 4 74h188v-8q-2 -117 72 -192.5t190 -75.5q160 0 272.5 119.5t112.5 279.5q0 125 -77.5 193.5t-204.5 68.5q-178 0 -275 -129l-168 37l259 746h673l-28 -189h-537l-145 -395q143 115 290 115q182 0 296 -120t114 -304q0 -252 -185.5 -431.5t-437.5 -179.5 q-188 0 -300.5 102.5t-112.5 288.5z" />
<glyph unicode="6" d="M37 397q0 217 309 594v2l402 482h210l-426 -519q96 35 150 35q174 0 280.5 -117.5t106.5 -293.5q0 -236 -182 -422.5t-418 -186.5q-180 0 -306 124t-126 302zM227 446q0 -119 76 -202.5t193 -83.5q158 0 266 116.5t108 274.5q0 121 -71.5 193.5t-192.5 72.5 q-147 0 -263 -112t-116 -259z" />
<glyph unicode="7" d="M158 0l766 1288h-635l28 187h822l-31 -195l-746 -1280h-204z" />
<glyph unicode="8" d="M82 362q0 312 297 457q-123 96 -123 240q0 176 138 310t315 134q145 0 242.5 -89t97.5 -232q0 -238 -228 -363q186 -90 187 -282q0 -229 -159 -397.5t-386 -168.5q-168 0 -274.5 112t-106.5 279zM268 391q0 -104 61.5 -170.5t164.5 -66.5q137 0 230 102t93 240 q0 104 -61.5 164.5t-165.5 60.5q-137 0 -229.5 -95.5t-92.5 -234.5zM451 1077q0 -78 44 -126t121 -48q100 0 168 74t68 176q0 76 -45 124t-121 48q-98 0 -166.5 -75t-68.5 -173z" />
<glyph unicode="9" d="M111 893q0 238 181 424t419 186q199 0 312.5 -110.5t113.5 -307.5q0 -166 -93 -325q-51 -86 -206 -275l-402 -485h-217l426 520q-92 -41 -147 -41q-174 0 -280.5 119t-106.5 295zM307 926q0 -121 74 -195t194 -74q147 0 258 114t111 261q0 119 -70.5 199t-189.5 80 q-162 0 -269.5 -112t-107.5 -273z" />
<glyph unicode=":" horiz-adv-x="591" d="M119 0l37 233h186l-37 -233h-186zM250 821l37 230h186l-37 -230h-186z" />
<glyph unicode=";" horiz-adv-x="591" d="M104 -246l17 111q76 12 96 149h-76l35 222h186l-32 -213q-36 -230 -226 -269zM268 823l37 230h187l-37 -230h-187z" />
<glyph unicode="&#x3c;" horiz-adv-x="1732" d="M272 561v117l1188 489v-137l-1014 -412l1014 -411v-133z" />
<glyph unicode="=" horiz-adv-x="1732" d="M262 352v121h1208v-121h-1208zM262 762v123h1208v-123h-1208z" />
<glyph unicode="&#x3e;" horiz-adv-x="1732" d="M272 74v133l1014 411l-1014 412v137l1188 -489v-117z" />
<glyph unicode="?" horiz-adv-x="1001" d="M74 1063q31 188 172 314t329 126q164 0 267 -78q117 -86 116 -245q0 -33 -6 -70q-27 -162 -104 -256q-31 -37 -154 -131q-100 -78 -148.5 -167t-60.5 -165h-184q31 193 199 369q86 86 172 174q88 104 88 221q0 170 -225 170q-111 0 -187 -74.5t-94 -187.5h-180zM240 0 l34 223h179l-35 -223h-178z" />
<glyph unicode="@" horiz-adv-x="2082" d="M106 528q0 422 308 695q295 264 721 264q334 0 573 -176q268 -195 268 -516q0 -266 -149 -461q-164 -213 -422 -213q-193 0 -193 151v54q-127 -201 -319 -201q-313 0 -313 332q0 217 129 381q137 174 350 174q172 0 250 -168l63 133h115l-144 -580q-8 -33 -8 -63 q0 -104 113 -105q172 0 293 193q104 170 104 352q0 291 -219 459q-199 150 -500 149q-373 0 -630.5 -243.5t-257.5 -612.5q0 -338 239 -538q223 -188 567 -189q358 0 635 191l47 -70q-297 -217 -669 -217q-397 0 -662 211q-289 227 -289 614zM723 451q0 -104 51 -170 t154 -66q98 0 180 72.5t113 191.5l61 244q-35 199 -213 199q-164 0 -262 -160q-84 -137 -84 -311z" />
<glyph unicode="A" horiz-adv-x="1245" d="M-180 0l813 1475h196l345 -1475h-220l-94 436h-592l-237 -436h-211zM367 627h454l-129 606z" />
<glyph unicode="B" horiz-adv-x="1064" d="M14 0l234 1475h311q422 0 422 -314q0 -252 -229 -370q215 -66 215 -279q0 -33 -6 -66q-72 -446 -611 -446h-336zM236 182h180q346 0 346 299q0 209 -266 209h-181zM340 846h82q315 0 354 231q4 23 4 45q0 170 -239 170h-129z" />
<glyph unicode="C" horiz-adv-x="1531" d="M53 616q0 348 267.5 617.5t615.5 269.5q215 0 367 -94q166 -104 221 -301h-234q-117 201 -389 201q-248 0 -444.5 -203t-196.5 -453q0 -205 127 -344q131 -145 334 -145q268 0 436 188h246q-246 -381 -713 -381q-281 0 -459 182.5t-178 462.5z" />
<glyph unicode="D" horiz-adv-x="1404" d="M12 0l234 1475h473q285 0 460 -158t175 -440q0 -70 -13 -144q-57 -352 -311 -547q-244 -186 -608 -186h-410zM231 180h275q287 0 467 188.5t180 477.5q0 223 -147 338q-133 104 -363 104h-235z" />
<glyph unicode="E" horiz-adv-x="1003" d="M12 0l234 1475h758l-29 -179h-561l-74 -469h561l-27 -172h-561l-75 -469h561l-29 -186h-758z" />
<glyph unicode="F" horiz-adv-x="944" d="M14 0l234 1475h713l-29 -179h-520l-74 -469h520l-27 -172h-520l-104 -655h-193z" />
<glyph unicode="G" horiz-adv-x="1626" d="M49 600q0 362 267.5 632.5t631.5 270.5q465 0 580 -387h-246q-84 193 -381 193q-258 0 -451.5 -210t-193.5 -470q0 -213 126 -339t339 -126q403 0 584 383h-676l30 186h906q-80 -348 -297 -547q-233 -215 -578 -215q-289 0 -465 170t-176 459z" />
<glyph unicode="H" horiz-adv-x="1282" d="M14 0l234 1475h194l-100 -637h631l100 637h195l-234 -1475h-194l102 651h-631l-102 -651h-195z" />
<glyph unicode="I" horiz-adv-x="456" d="M16 0l234 1475h192l-233 -1475h-193z" />
<glyph unicode="J" horiz-adv-x="907" d="M-68 244q0 35 7 71h192q-2 -16 -2 -32q0 -131 166 -131q129 0 188 86q45 63 68 206l164 1031h194l-164 -1043q-33 -211 -149 -332q-127 -129 -334 -129q-145 0 -231 62q-98 72 -99 211z" />
<glyph unicode="K" horiz-adv-x="1128" d="M16 0l234 1475h194l-233 -1475h-195zM334 729l2 8l2 -4zM348 733l684 742h234l-693 -736l447 -739h-246z" />
<glyph unicode="L" horiz-adv-x="860" d="M14 0l234 1475h194l-204 -1289h491l-29 -186h-686z" />
<glyph unicode="M" horiz-adv-x="1751" d="M14 0l234 1475h305l252 -1178l627 1178h299l-234 -1475h-180l225 1346l-715 -1346h-139l-289 1346l-198 -1346h-187z" />
<glyph unicode="N" horiz-adv-x="1400" d="M14 0l234 1475h207l569 -1158l170 1158h192l-233 -1475h-188l-582 1192l-172 -1192h-197z" />
<glyph unicode="O" horiz-adv-x="1636" d="M53 621q0 348 271.5 615t619.5 267q276 0 459.5 -180t183.5 -457q0 -354 -268.5 -625.5t-620.5 -271.5q-281 0 -463 185.5t-182 466.5zM262 653q0 -207 131 -348t336 -141q260 0 453.5 204t193.5 466q0 199 -134 337t-333 138q-250 0 -448.5 -203t-198.5 -453z" />
<glyph unicode="P" horiz-adv-x="1058" d="M14 0l234 1475h397q430 0 430 -334q0 -250 -172 -400q-162 -139 -416 -139h-184l-96 -602h-193zM330 780h168q332 0 372 254q4 29 4 56q0 206 -283 206h-3h-176z" />
<glyph unicode="Q" horiz-adv-x="1632" d="M53 616q0 348 266.5 617.5t616.5 269.5q283 0 462 -181t179 -464q0 -367 -277 -629q109 -49 222 -51l-31 -188q-195 23 -365 102q-215 -121 -432 -121q-283 0 -462 181.5t-179 463.5zM260 655q0 -205 131 -348t336 -143q260 0 453.5 204t193.5 466q0 199 -134 337 t-333 138q-250 0 -448.5 -202t-198.5 -452z" />
<glyph unicode="R" horiz-adv-x="1167" d="M14 0l234 1475h422q471 0 471 -369q0 -51 -8 -105q-29 -182 -173.5 -304t-328.5 -122l334 -575h-244l-389 698h58h63q215 0 319 50q143 70 174 258q4 29 4 59q0 229 -362 229h-174l-205 -1294h-195zM319 698l3 17l10 -17h-13z" />
<glyph unicode="S" horiz-adv-x="976" d="M-12 330q0 41 6 82h184q-4 -25 -4 -50q0 -92 55.5 -152t147.5 -60q125 0 215 94t90 221q0 117 -141 186q-129 59 -260 119q-139 86 -140 242q0 203 137.5 347t337.5 144q154 0 240 -84t86 -237q0 -27 -2 -56h-180q2 12 2 25q0 78 -50 126t-128 48q-104 0 -177 -69.5 t-73 -174.5q0 -104 143 -180q61 -33 156 -70q246 -98 246 -315q0 -225 -150.5 -386t-376.5 -161q-164 0 -264 98.5t-100 262.5z" />
<glyph unicode="T" horiz-adv-x="837" d="M113 1294l28 181h791l-29 -181h-299l-205 -1294h-194l205 1294h-297z" />
<glyph unicode="U" horiz-adv-x="1167" d="M72 360q0 78 14 175l147 940h197l-149 -943q-14 -86 -15 -145q0 -237 232 -237h2q158 0 237 118q57 86 86 264l150 943h194l-147 -940q-88 -565 -545 -566q-403 0 -403 391z" />
<glyph unicode="V" horiz-adv-x="1193" d="M82 1475h211l225 -1246l619 1246h209l-768 -1475h-195z" />
<glyph unicode="W" horiz-adv-x="1753" d="M88 1475h199l143 -1184l492 1184h143l111 -1184l522 1184h196l-675 -1475h-183l-96 1153l-461 -1153h-178z" />
<glyph unicode="X" horiz-adv-x="1210" d="M-113 0l611 745l-365 730h227l269 -590l452 590h230l-594 -730l370 -745h-223l-280 594l-473 -594h-224z" />
<glyph unicode="Y" horiz-adv-x="1013" d="M74 1475h217l217 -734l448 734h220l-607 -947l-84 -528h-194l86 541z" />
<glyph unicode="Z" horiz-adv-x="976" d="M-76 0l33 201l831 1083h-620l31 191h841l-26 -175l-864 -1114h698l-29 -186h-895z" />
<glyph unicode="[" horiz-adv-x="563" d="M-27 -424l303 1903h379l-24 -146h-201l-254 -1609h201l-25 -148h-379z" />
<glyph unicode="\" horiz-adv-x="563" d="M139 1503h129l217 -1696h-131z" />
<glyph unicode="]" horiz-adv-x="563" d="M-90 -424l24 148h197l254 1609h-197l25 146h377l-303 -1903h-377z" />
<glyph unicode="^" horiz-adv-x="2082" d="M446 918l504 552h180l504 -552h-155l-439 436l-438 -436h-156z" />
<glyph unicode="_" horiz-adv-x="1028" d="M0 -354h1028v-125h-1028v125z" />
<glyph unicode="`" horiz-adv-x="1028" d="M295 1599h180l143 -335h-102z" />
<glyph unicode="a" horiz-adv-x="1263" d="M49 434q0 256 189.5 449.5t445.5 193.5q215 0 348 -164l21 138h180l-166 -1051h-172l25 147q-195 -170 -400 -170q-207 0 -339 125t-132 332zM240 469q0 -139 89 -231.5t228 -92.5q160 0 292 137.5t132 297.5q0 135 -86 230t-221 95q-170 0 -302 -133t-132 -303z" />
<glyph unicode="b" horiz-adv-x="1257" d="M-16 0l249 1577h177l-107 -666q195 162 404 162q201 0 329.5 -126t128.5 -326q0 -262 -191.5 -453t-453.5 -191q-193 0 -342 170l-22 -147h-172zM233 467q0 -131 88.5 -226.5t217.5 -95.5q174 0 305 133.5t131 309.5q0 135 -89 224t-224 89q-164 0 -296.5 -135 t-132.5 -299z" />
<glyph unicode="c" horiz-adv-x="1157" d="M45 426q0 268 190.5 460.5t456.5 192.5q180 0 295 -96t148 -272h-197q-55 196 -287 196h-2q-170 0 -293 -138t-123 -310q0 -135 83 -226.5t219 -91.5q237 0 346 209h196q-195 -379 -569 -379q-205 0 -334 125t-129 330z" />
<glyph unicode="d" horiz-adv-x="1257" d="M10 432q0 254 188.5 447.5t442.5 193.5q213 0 348 -162l107 666h178l-250 -1577h-172l22 147q-190 -170 -395 -170t-337 126t-132 329zM201 467q0 -139 88 -230.5t227 -91.5q162 0 292 136.5t130 298.5q0 135 -85 228t-220 93q-172 0 -302 -131t-130 -303z" />
<glyph unicode="e" horiz-adv-x="1187" d="M47 438q0 252 192.5 447.5t442.5 195.5q213 0 334 -129t121 -344q0 -68 -13 -147h-893q4 -137 86 -227.5t218 -90.5q200 1 331 181h201q-207 -352 -559 -353q-201 0 -331 133.5t-130 333.5zM260 623h696q-39 284 -297 284q-133 0 -238.5 -78.5t-160.5 -205.5z" />
<glyph unicode="f" horiz-adv-x="534" d="M35 0l139 885h-121l27 162h121q35 223 47 270q37 129 112 188q90 72 267 72l-27 -164h-9q-83 0 -124 -36q-43 -38 -57 -128q-10 -68 -33 -202h166l-27 -162h-166l-139 -885h-176z" />
<glyph unicode="g" horiz-adv-x="1263" d="M41 -135h209q2 -94 88 -141q70 -39 172 -39q176 0 289 108q104 100 135 279l12 71q-189 -163 -387 -163h-2q-211 0 -341 120.5t-130 327.5q0 260 187.5 455.5t445.5 195.5q215 0 352 -164l21 138h178l-146 -924q-45 -281 -192 -436q-164 -174 -436 -174q-244 0 -348.5 98 t-106.5 248zM274 461q0 -143 88.5 -228.5t231.5 -85.5q160 0 292 137.5t132 297.5q0 135 -86 230t-221 95q-174 0 -305.5 -136t-131.5 -310z" />
<glyph unicode="h" horiz-adv-x="1099" d="M-14 0l250 1577h180l-105 -666q127 152 322 152q338 0 338 -346q0 -55 -10 -115l-97 -602h-180l86 541q12 72 12 127q0 225 -204 225q-268 0 -336 -418l-76 -475h-180z" />
<glyph unicode="i" horiz-adv-x="403" d="M-4 0l166 1047h174l-166 -1047h-174zM201 1288l32 201h175l-33 -201h-174z" />
<glyph unicode="j" horiz-adv-x="415" d="M-199 -481l25 164q92 0 136 39.5t58 132.5l189 1194h178l-188 -1209q-52 -321 -398 -321zM248 1290l31 201h178l-31 -201h-178z" />
<glyph unicode="k" horiz-adv-x="925" d="M-14 0l250 1577h176l-154 -1024l457 494h209l-463 -496l368 -551h-229l-344 541l-2 -11l-6 9l-86 -539h-176z" />
<glyph unicode="l" horiz-adv-x="403" d="M-14 0l250 1577h174l-250 -1577h-174z" />
<glyph unicode="m" horiz-adv-x="1705" d="M33 0l166 1051h157l-20 -136q141 152 301 152q113 0 179.5 -43t109.5 -145q133 188 358 188q156 0 244 -88t88 -244q0 -43 -8 -92l-101 -643h-180l96 610q6 43 7 80q0 217 -191 217q-143 0 -215 -112q-53 -80 -78 -244l-86 -551h-172l84 530q14 88 14 148q0 229 -196 229 q-248 0 -305 -368l-84 -539h-168z" />
<glyph unicode="n" horiz-adv-x="1124" d="M27 0l166 1051h172l-21 -131q152 147 328 147q360 0 360 -346q0 -55 -10 -121l-94 -600h-178l88 559q8 57 8 105q0 233 -219 233q-166 0 -252 -135q-61 -96 -92 -285l-76 -477h-180z" />
<glyph unicode="o" horiz-adv-x="1196" d="M45 436q0 246 192.5 448.5t438.5 202.5q199 0 338 -135t139 -334q0 -248 -197.5 -447.5t-445.5 -199.5q-201 0 -333 132.5t-132 332.5zM231 463q0 -137 86 -225t222 -88q172 0 299 135t127 307q0 139 -87 227t-225 88q-172 0 -297 -136t-125 -308z" />
<glyph unicode="p" horiz-adv-x="1263" d="M-12 -457l237 1510h181l-21 -142q188 164 387 164q209 0 340 -124t131 -330q0 -260 -187.5 -453t-445.5 -193q-211 0 -352 164l-94 -596h-176zM311 473q0 -137 86 -231.5t221 -94.5q172 0 304.5 133.5t132.5 305.5q0 141 -89 231t-229 90q-162 0 -294 -136t-132 -298z " />
<glyph unicode="q" horiz-adv-x="1263" d="M84 432q0 262 192.5 452.5t454.5 190.5q199 0 338 -164l21 142h180l-238 -1510h-180l94 596q-186 -164 -399 -164q-201 0 -332 128t-131 329zM274 467q0 -133 90.5 -226.5t223.5 -93.5q164 0 297 137.5t133 301.5q0 131 -88 226t-217 95q-172 0 -305.5 -134t-133.5 -306z " />
<glyph unicode="r" horiz-adv-x="559" d="M31 0l166 1051h165l-20 -136q135 152 274 152l-28 -186q-240 0 -287 -295l-92 -586h-178z" />
<glyph unicode="s" horiz-adv-x="757" d="M2 260q0 35 6 72h170q-2 -18 -2 -35q0 -68 37 -113t102 -45q78 0 132.5 52.5t54.5 130.5q0 88 -111 135q-131 55 -178 88q-94 68 -94 164q0 150 105.5 263t254.5 113q115 0 185.5 -61t70.5 -174q0 -29 -4 -59h-172q2 12 2 22q0 104 -115 105q-57 0 -104 -44.5t-47 -101.5 q0 -68 98 -117q176 -86 185 -92q98 -70 98 -194q0 -164 -112.5 -280t-278.5 -116q-131 0 -207 78t-76 209z" />
<glyph unicode="t" horiz-adv-x="530" d="M57 887l25 162h151l56 342h174l-55 -342h151l-24 -162h-152l-141 -887h-174l141 887h-152z" />
<glyph unicode="u" horiz-adv-x="1103" d="M86 330q0 53 10 116l94 605h177l-86 -551q-10 -63 -11 -115q0 -235 205 -235h2q158 0 234 108q72 102 104 311l76 482h180l-166 -1051h-172l23 133q-150 -156 -316 -156q-354 0 -354 353z" />
<glyph unicode="v" horiz-adv-x="966" d="M90 1051h193l157 -791l420 791h189l-590 -1051h-135z" />
<glyph unicode="w" horiz-adv-x="1398" d="M98 1051h193l104 -717l336 717h109l102 -717l338 717h190l-532 -1051h-100l-109 733l-336 -733h-100z" />
<glyph unicode="x" horiz-adv-x="890" d="M-98 0l442 547l-233 504h198l164 -369l291 369h207l-414 -498l250 -553h-199l-186 408l-324 -408h-196z" />
<glyph unicode="y" horiz-adv-x="1024" d="M133 -457l262 484l-258 1026h195l194 -803l430 803h195l-827 -1510h-191z" />
<glyph unicode="z" horiz-adv-x="782" d="M-66 0l25 145l637 744h-457l27 162h631l-31 -189l-596 -694h514l-27 -168h-723z" />
<glyph unicode="{" horiz-adv-x="1028" d="M172 475v127q164 0 228.5 60.5t64.5 224.5v254q0 233 80 301q68 57 293 57h28v-133q-158 0 -204 -50t-46 -220q0 -33 2.5 -101.5t2.5 -101.5q0 -184 -49.5 -252t-188.5 -104q143 -37 190.5 -104.5t47.5 -254.5q0 -33 -2.5 -100.5t-2.5 -97.5q0 -166 44.5 -218.5 t205.5 -52.5v-133h-32q-227 0 -293 57q-76 66 -76 301v252q0 166 -63.5 227.5t-229.5 61.5z" />
<glyph unicode="|" horiz-adv-x="1030" d="M-10 -502h2v-2h-2v2zM451 -459v2046h133v-2046h-133z" />
<glyph unicode="}" horiz-adv-x="1028" d="M162 -291q164 0 207 51.5t43 208.5q0 33 -2 103.5t-2 105.5q0 186 47 254t190 105q-139 37 -188 104.5t-49 249.5q0 35 2 103.5t2 101.5q0 170 -46.5 220t-203.5 50v133h28q225 0 293 -57q80 -68 80 -301v-254q0 -145 55 -211q61 -74 203 -74h35v-127h-35 q-143 0 -200.5 -70.5t-57.5 -218.5v-252q0 -236 -74 -301q-66 -57 -294 -57h-33v133z" />
<glyph unicode="~" horiz-adv-x="1732" d="M182 477v131q219 143 387 144q106 0 304 -70t292 -70q174 0 387 150v-133q-209 -143 -391 -144q-45 0 -131 25q-115 37 -229 74q-145 43 -232 43q-168 0 -387 -150z" />
<glyph unicode="&#xa4;" horiz-adv-x="1255" d="M88 428l213 209q-90 102 -90 258q0 139 90 260l-213 213l70 68l211 -211q123 92 260 92q143 0 262 -92l209 211l74 -68l-213 -213q88 -115 88 -260q0 -150 -88 -258l213 -209l-74 -70l-209 211q-119 -96 -258 -96q-141 0 -264 96l-211 -211zM309 899q0 -131 96.5 -227.5 t227.5 -96.5t225 96.5t94 227.5t-94 225.5t-225 94.5t-227.5 -94.5t-96.5 -225.5z" />
<glyph unicode="&#xa6;" horiz-adv-x="1030" d="M-10 -502h2v-2h-2v2zM451 -354v757h133v-757h-133zM451 696v758h133v-758h-133z" />
<glyph unicode="&#xa7;" horiz-adv-x="1028" d="M61 33q0 31 7 63h155q-2 -18 -2 -35q0 -76 55 -116q49 -37 127 -37q84 0 149.5 50t65.5 132q0 102 -200 219l-176 103q-156 90 -156 235q0 199 240 342q-72 66 -72 160q0 156 117 258q113 96 270 96q301 0 301 -248q0 -33 -6 -67h-154q2 14 2 29q0 72 -46 112.5 t-117 40.5q-84 0 -141.5 -47t-57.5 -129q0 -70 67 -127q31 -25 129 -80l168 -94q162 -90 162 -236q0 -117 -68.5 -208t-181.5 -134q80 -80 80 -174q0 -166 -121.5 -267t-291.5 -101q-133 0 -213 63q-90 70 -91 197zM258 719q0 -61 53 -113q23 -20 107 -74l207 -133 q147 76 147 195q0 104 -158 197l-208 122q-147 -82 -148 -194z" />
<glyph unicode="&#xa9;" horiz-adv-x="1732" d="M119 737q0 307 223 531q215 215 522 215q311 0 530.5 -217t219.5 -529q0 -309 -217 -522q-231 -225 -533 -225q-305 0 -525 221t-220 526zM197 737q0 -270 199.5 -468.5t469.5 -198.5q197 0 370 114.5t249 296.5q49 117 49 256q0 279 -194.5 473.5t-473.5 194.5 q-133 0 -252 -49q-182 -74 -299.5 -248t-117.5 -371zM475 741q0 193 100 316q106 133 295 133q129 0 224 -64q104 -69 116 -192h-129q-27 162 -221 162q-131 0 -192 -121q-47 -94 -47 -238q0 -145 51 -235q66 -115 198 -115q86 0 146.5 48t77.5 132h125q-10 -133 -119 -211 q-96 -70 -236 -69q-193 0 -297 135q-92 121 -92 319z" />
<glyph unicode="&#xab;" horiz-adv-x="1036" d="M133 559l295 307h127l-291 -311l193 -307h-127zM496 559l295 307h131l-293 -311l194 -307h-131z" />
<glyph unicode="&#xac;" horiz-adv-x="1732" d="M262 739v125h1208v-495h-118v370h-1090z" />
<glyph unicode="&#xad;" horiz-adv-x="673" d="M92 471v166h492v-166h-492z" />
<glyph unicode="&#xae;" horiz-adv-x="1732" d="M119 737q0 303 227 535q207 211 518 211q309 0 529.5 -218t220.5 -528q0 -315 -219 -526q-231 -221 -531 -221q-303 0 -524 222t-221 525zM197 737q0 -268 197.5 -467.5t465.5 -199.5q276 0 475 191.5t199 467.5q0 141 -47 261t-144 216q-199 199 -477 199 q-137 0 -256 -49q-178 -74 -295.5 -250t-117.5 -369zM571 332v839h314q346 0 346 -225q0 -184 -199 -227l189 -387h-156l-176 366h-174v-366h-144zM715 780h145q229 0 230 148q-1 155 -234 155h-141v-303z" />
<glyph unicode="&#xb0;" horiz-adv-x="669" d="M49 1184q0 119 84 201.5t203 82.5t202 -82.5t83 -201.5t-84 -203t-203 -84t-202 84t-83 203zM125 1184q0 -86 62.5 -149.5t148.5 -63.5t147.5 63.5t61.5 149.5t-61.5 148.5t-147.5 62.5q-84 0 -147.5 -63.5t-63.5 -147.5z" />
<glyph unicode="&#xb1;" horiz-adv-x="1732" d="M262 31v125h1208v-125h-1208zM262 731v125h543v348h123v-348h542v-125h-542v-348h-123v348h-543z" />
<glyph unicode="&#xb6;" horiz-adv-x="1028" d="M68 1151q0 168 114 262q106 86 279 86h502v-69h-125v-1430h-90v1430h-203v-1430h-94v803q-166 8 -271 92q-113 94 -112 256z" />
<glyph unicode="&#xb7;" horiz-adv-x="581" d="M186 737q0 43 30 73t73 30q104 0 104 -103q0 -102 -104 -102q-43 0 -73 29.5t-30 72.5z" />
<glyph unicode="&#xbb;" horiz-adv-x="1036" d="M115 248l295 307l-197 311h131l197 -307l-295 -311h-131zM481 248l293 307l-194 311h127l196 -307l-295 -311h-127z" />
<glyph unicode="&#x2000;" horiz-adv-x="840" />
<glyph unicode="&#x2001;" horiz-adv-x="1681" />
<glyph unicode="&#x2002;" horiz-adv-x="840" />
<glyph unicode="&#x2003;" horiz-adv-x="1681" />
<glyph unicode="&#x2004;" horiz-adv-x="560" />
<glyph unicode="&#x2005;" horiz-adv-x="420" />
<glyph unicode="&#x2006;" horiz-adv-x="280" />
<glyph unicode="&#x2007;" horiz-adv-x="280" />
<glyph unicode="&#x2008;" horiz-adv-x="210" />
<glyph unicode="&#x2009;" horiz-adv-x="336" />
<glyph unicode="&#x200a;" horiz-adv-x="93" />
<glyph unicode="&#x2010;" horiz-adv-x="673" d="M92 471v166h492v-166h-492z" />
<glyph unicode="&#x2011;" horiz-adv-x="673" d="M92 471v166h492v-166h-492z" />
<glyph unicode="&#x2012;" horiz-adv-x="673" d="M92 471v166h492v-166h-492z" />
<glyph unicode="&#x2013;" horiz-adv-x="1028" d="M0 492v126h1028v-126h-1028z" />
<glyph unicode="&#x2014;" horiz-adv-x="2082" d="M0 492v126h2083v-126h-2083z" />
<glyph unicode="&#x2018;" horiz-adv-x="464" d="M102 1012l35 211q20 119 66 178q53 70 162 94l-19 -117q-74 -18 -92 -141h70l-37 -225h-185z" />
<glyph unicode="&#x2019;" horiz-adv-x="464" d="M102 987l19 113q74 18 92 137h-70l37 231h185l-35 -213q-18 -117 -66 -176q-53 -70 -162 -92z" />
<glyph unicode="&#x201a;" horiz-adv-x="464" d="M102 -242l19 117q74 18 92 137h-70l37 232h185l-35 -215q-18 -117 -66 -176q-53 -70 -162 -95z" />
<glyph unicode="&#x201c;" horiz-adv-x="811" d="M100 1012l35 211q20 121 66 180q53 68 166 92l-19 -117q-76 -18 -94 -141h72l-37 -225h-189zM440 1012l35 211q18 117 68 178q53 70 164 94l-19 -117q-74 -18 -92 -141h70l-37 -225h-189z" />
<glyph unicode="&#x201d;" horiz-adv-x="811" d="M100 987l19 113q74 18 92 137h-70l37 231h189l-35 -213q-18 -117 -68 -178q-55 -68 -164 -90zM440 985l19 115q76 18 94 137h-72l37 231h189l-35 -213q-18 -119 -66 -178q-55 -70 -166 -92z" />
<glyph unicode="&#x201e;" horiz-adv-x="811" d="M100 -242l19 117q74 18 92 137h-70l37 232h189l-35 -215q-18 -117 -68 -179q-55 -68 -164 -92zM440 -242l19 117q76 18 94 137h-72l37 232h189l-35 -215q-18 -119 -66 -179q-55 -70 -166 -92z" />
<glyph unicode="&#x2022;" horiz-adv-x="1222" d="M315 772q0 123 87 208t210 85t209 -85t86 -208t-87 -211t-210 -88t-209 88t-86 211z" />
<glyph unicode="&#x2026;" horiz-adv-x="2082" d="M248 10v230h184v-230h-184zM950 10v230h183v-230h-183zM1651 10v230h184v-230h-184z" />
<glyph unicode="&#x202f;" horiz-adv-x="336" />
<glyph unicode="&#x2039;" horiz-adv-x="673" d="M133 559l295 307h129l-291 -311l193 -307h-129z" />
<glyph unicode="&#x203a;" horiz-adv-x="673" d="M117 248l293 307l-195 311h131l197 -307l-295 -311h-131z" />
<glyph unicode="&#x205f;" horiz-adv-x="420" />
<glyph unicode="&#x2122;" horiz-adv-x="1730" d="M248 1409v61h442v-61h-176v-471h-90v471h-176zM834 938v532h139l160 -417l151 417h135v-532h-78v502l-188 -502h-45l-195 502v-502h-79z" />
<glyph unicode="&#x25fc;" horiz-adv-x="1054" d="M0 0v1055h1055v-1055h-1055z" />
</font>
</defs>
</svg>
