<?xml version="1.0" encoding="UTF-8"?>
<!DOCTYPE svg PUBLIC "-//W3C//DTD SVG 1.1//EN" "http://www.w3.org/Graphics/SVG/1.1/DTD/svg11.dtd">
<!-- Creator: CorelDRAW X7 -->
<svg xmlns="http://www.w3.org/2000/svg" xml:space="preserve" width="220px" height="208px" version="1.1" style="shape-rendering:geometricPrecision; text-rendering:geometricPrecision; image-rendering:optimizeQuality; fill-rule:evenodd; clip-rule:evenodd"
viewBox="0 0 484400000 457989902"
 xmlns:xlink="http://www.w3.org/1999/xlink">
 <defs>
  <style type="text/css">
   <![CDATA[
    .fil1 {fill:#703E2B}
    .fil0 {fill:#703E2B;fill-rule:nonzero}
   ]]>
  </style>
 </defs>
 <g id="Слой_x0020_1">
  <metadata id="CorelCorpID_0Corel-Layer"/>
  <g id="_399524588576">
   <path class="fil0" d="M477195807 364255914l0 7404375c0,8825608 -822813,14958620 -2468085,18398917 -2729917,5684226 -8040234,8526340 -16043029,8526340 -10358684,0 -17202313,-3888965 -20493330,-11667368 -2729917,-6282646 -4076038,-18249637 -4076038,-35900500l0 -4711896c0,-1495992 74876,-3066506 224393,-4711779 0,-7928037 -1869665,-13275673 -5572030,-16043028 -3739802,-2767237 -9087439,-4151151 -16080348,-4151151l-26364275 0 0 60320352c0,4487385 261831,7366937 785375,8563423 523308,1196841 1645390,2131851 3365421,2804675 1720503,673297 5235440,1084644 10545757,1234279 5310199,149635 10882346,224393 16716207,224393l0 2019300 -91321646 0 0 -2243693c15706321,0 25130350,-598420 28271732,-1794907 1495756,-598420 2542962,-1458672 3141383,-2580636 598066,-1159167 897217,-3889083 897217,-8226834l0 -115704060c0,-4188470 -299151,-6843628 -897217,-7890480 -299270,-598421 -1271718,-1196841 -2916990,-1794907 -4338105,-1645745 -13836656,-2468558 -28496125,-2468558l0 -2019300 91770432 0c16155107,0 29019433,4338223 38592979,13013843 7628767,6918505 11442974,14023729 11442974,21353227 0,8713412 -2991630,15818636 -9012209,21353227 -7217774,6731551 -18623310,10994543 -34255228,12827243 15968153,3103590 26476826,12003956 31600070,26663426 2580282,7292178 3851645,18361479 3851645,33132791 0,4338223 374027,7479251 1159402,9424029 747701,1944541 2542962,2916989 5422514,2916989 3178702,0 5385075,-2505878 6581561,-7516925 1234161,-5011048 1832581,-11929199 1832581,-20754807l1794907 0zm-90872742 -45324175l20792245 0c10882228,0 18922462,-2019300 24120464,-6095692 6245326,-4824093 9386709,-12976405 9386709,-24419733 0,-12639816 -2580400,-21577266 -7703999,-26775387 -5160564,-5198356 -13686667,-7778756 -25578781,-7778756l-10732712 0c-3141383,0 -5459952,224511 -6918151,673297 -1496110,448785 -2430766,1383795 -2804793,2842113 -374028,1421233 -560982,4300430 -560982,8675974l0 52878184z"/>
   <path class="fil0" d="M287009725 353411005c0,16192546 -5908619,28383929 -17725621,36648201 -8227189,5684226 -16828404,8526340 -25803293,8526340 -16903162,0 -31039087,-3514938 -42407540,-10545639 -12565057,-7815841 -18847703,-18585991 -18847703,-32385209l0 -89189678c0,-4226026 -298915,-6918505 -897336,-8114991 -299151,-598421 -1196840,-1196841 -2692478,-1795262 -4786655,-1794906 -13013843,-2692596 -24681564,-2692596l0 -2019300 86385239 0 0 2019300c-6881067,0 -12453097,224511 -16716090,673297 -4263110,448785 -7367054,1047206 -9311832,1795261 -1944542,747582 -3066270,1420879 -3365421,2019300 -748055,1346003 -1122083,4038599 -1122083,8077553l0 84590096c0,14958384 2243811,25653658 6731551,32085939 5385075,7778403 15107901,11667722 29168950,11667722 7778402,0 15332411,-2767355 22661910,-8301947 10321364,-7778402 15482046,-18847703 15482046,-33208021l0 -58562411c0,-15407170 -2393327,-26065005 -7179982,-31973742 -4786654,-5908620 -12639815,-8863047 -23559599,-8863047l0 -2019300 60357317 0 0 2019300c-11218582,0 -18698069,3141382 -22437517,9424029 -2692479,4524823 -4038954,12078833 -4038954,22699348l0 67425457z"/>
   <path class="fil0" d="M30515425 381720176l0 -115255156c0,-4338223 -299151,-7068139 -897571,-8114991 -299270,-598421 -1308683,-1196841 -3029186,-1795262 -1720149,-598066 -5085806,-1196486 -10096854,-1794906 -5011047,-598421 -10508319,-897690 -16491814,-897690l0 -2019300 138665121 0 0 56094325 -2916989 0c0,-11555171 -2916636,-22624472 -8713058,-33132791 -7778403,-13948853 -18735507,-20942234 -32908753,-20942234 -9685505,0 -16529134,149634 -20455655,448904 -3964078,299151 -7965357,1047206 -11966873,2243692l-2019300 935010c-1047324,1047206 -1570514,4038954 -1570514,9012563l0 52653792c15930714,0 25803293,-1570514 29692258,-4711897 6245326,-5085805 10246842,-17950368 12041749,-38592978l2692478 0 0 88404657 -2692478 0c0,-20193825 -3403096,-32833995 -10246488,-37919800 -4338223,-3290663 -14809104,-4936290 -31487519,-4936290l0 60320352c0,4337751 298797,7142544 897217,8339030 299269,598421 1346476,1234161 3141383,1907458 1794906,672824 5272878,1233807 10433560,1682710 5160564,448786 12153946,673179 20979200,673179l0 2243693 -93565339 0 0 -2243693c6432281,0 12004311,-224393 16716207,-673179 4711779,-448903 7927919,-1009886 9648068,-1682710 1720503,-673297 2842113,-1496110 3365775,-2468204 523544,-1009768 785375,-3590168 785375,-7778284z"/>
   <path class="fil0" d="M357556841 83258738l36436799 100868500 30447990 -100868500 59958370 0 0 1948084c-13131708,0 -21789731,865920 -25974658,2597407 -1442964,577280 -2308885,1154560 -2597525,1731841 -721600,1298644 -1082046,3932190 -1082046,7828595l0 111186204c0,4329011 288286,7034717 865566,8044603 288640,577280 1335020,1190700 3138666,1840140 1803765,649086 4942431,1190345 9415762,1623305 4473567,432961 9885097,649441 16234235,649441l0 2164446 -83551747 0 0 -2164446c5194577,0 9993042,-216480 14394213,-649441 4401171,-432960 7431538,-974219 9090983,-1623305 1659680,-649440 2633545,-1262860 2922185,-1840140 577281,-1154206 865921,-3823891 865921,-8044603l-216480 -117932635c0,-2453205 -288640,-3679571 -865921,-3679571 -576926,0 -1226484,1082046 -1948084,3246611l-39503305 132687530 -4761972 0 -46646203 -132687530 -1731605 -3246611c-432960,0 -649440,1226366 -649440,3679571l0 90695000c0,16017873 2128426,26588195 6385631,31710966 4256852,5122772 12301809,7684158 24134637,7684158l0 2164446 -61256897 0 0 -2164446c10101223,0 17244475,-2597525 21429167,-7828478 4184691,-5194931 6277095,-14033767 6277095,-26479896l0 -67101268c0,-12734887 -1948084,-21609390 -5844135,-26587841 -3896406,-5014827 -11183624,-7504053 -21862127,-7504053l0 -2164565 56494925 216481z"/>
   <path class="fil0" d="M58659726 159667941l0 48882928c0,4184691 288404,6854258 865684,8044603 288640,577280 1298881,1190700 3030367,1840140 1731605,649086 5122890,1190345 10173501,1623305 5050612,432961 11977030,649441 20779727,649441l0 2164446 -93509005 0 0 -2164446c7359496,0 13456369,-216480 18290501,-649441 4834249,-432960 8117235,-974219 9848722,-1623305 1731840,-649440 2741844,-1262860 3030485,-1840140 577280,-1190345 865920,-3859912 865920,-8044603l0 -111619164c0,-3896406 -288640,-6457791 -865920,-7612116 -288641,-577280 -1154325,-1154560 -2597525,-1731486 -4473332,-1587521 -13997274,-2381281 -28572183,-2381281l0 -1948084 83985062 0c17172079,0 30736747,3968565 40693650,11905341 9379623,7503699 14069434,17316282 14069434,29437749 0,8225417 -3607411,15729233 -10822587,22511331 -8946899,8369737 -21068366,12554782 -36364521,12554782l-32901312 0zm0 -1948439l21934051 0c12049307,0 20455065,-3102527 25217036,-9343483 4076865,-5339252 6096991,-13889448 6096991,-25613976 0,-12301809 -2669685,-21645647 -8044957,-27994903 -5339252,-6385631 -13600807,-9560318 -24784077,-9560318l-10426002 0c-3030367,0 -5267091,216480 -6746431,649440 -1442846,432961 -2344906,1334902 -2705706,2705706 -360800,1371041 -540905,4184691 -540905,8369737l0 60787797z"/>
   <path class="fil0" d="M20823306 457318495l-3295741 0 0 -32618696 3295741 0 0 14379097 16080939 0 0 -14379097 3295741 0 0 32618696 -3295741 0 0 -15386148 -16080939 0 0 15386148zm50856877 0l-3362115 0 -4195438 -10630436 -13637537 0 -4195438 10630436 -3418803 0 13069232 -32618696 2670748 0 13069351 32618696zm-14395277 -27741693l-5653874 14257806 11345659 0 -5653874 -14276466 -37911 18660zm17065906 27741693l0 -32618696 4062811 0 18202396 28431761c0,-484807 0,-1212194 9449,-2182044 0,-932412 0,-1641139 0,-2126064l0 -24123653 3011588 0 0 32618696 -4034348 0 -18126693 -28310470c0,820569 0,1976783 0,3468878l0 24841592 -3125203 0zm31764113 0l0 -32618696 9603189 0c5303467,0 9508471,1380135 12614659,4140285 3182128,2872111 4773191,6900554 4773191,12085211 0,5259179 -1534138,9306282 -4602652,12141072 -3068396,2834791 -7292297,4252128 -12671585,4252128l-9716802 0zm3295741 -29765245l0 26911794 6136909 0c4583874,0 8106843,-1156332 10569141,-3468878 2462299,-2312546 3693507,-5706902 3693507,-10182831 0,-4252127 -1306911,-7553183 -3920734,-9903049 -2538120,-2238024 -5985385,-3357036 -10341914,-3357036l-6136909 0zm46538376 29765245l-3011707 0 -11705632 -28814055 0 0c-37792,1156332 -56688,1734439 -56688,1734439l56688 27079616 -3295741 0 0 -32618696 4991089 0 11478286 28543721 75703 0 11535094 -28543721 4934045 0 0 32618696 -3295741 0 0 -27079616c0,0 75822,-578107 227346,-1734439l-227346 0 -11705396 28814055zm45231229 0l-3361996 0 -4195438 -10630436 -13637655 0 -4195438 10630436 -3418803 0 13069232 -32618696 2670748 0 13069350 32618696zm-14395158 -27741693l-5653874 14257806 11345541 0 -5653874 -14276466 -37793 18660zm17065788 27741693l0 -32618696 9603189 0c5303467,0 9508471,1380135 12614660,4140285 3182127,2872111 4773191,6900554 4773191,12085211 0,5259179 -1534257,9306282 -4602653,12141072 -3068395,2834791 -7292296,4252128 -12671584,4252128l-9716803 0zm3295741 -29765245l0 26911794 6136909 0c4583757,0 8106843,-1156332 10569023,-3468878 2462417,-2312546 3693626,-5706902 3693626,-10182831 0,-4252127 -1306912,-7553183 -3920735,-9903049 -2538238,-2238024 -5985385,-3357036 -10341914,-3357036l-6136909 0zm45913147 29765245l-17387851 0 0 -32618696 17387851 0 0 2853451 -14092110 0 0 11525646 12444358 0 0 2853451 -12444358 0 0 12532697 14092110 0 0 2853451zm31707306 0l-3295741 0 0 -32618696 16535630 0 0 2853451 -13239889 0 0 11693468 11194252 0 0 2853451 -11194252 0 0 15218326zm51197836 -16561140c0,4811692 -1666885,8877337 -5000537,12197052 -3333533,3319716 -7443821,4979515 -12330625,4979515 -4886687,0 -8959182,-1650469 -12217012,-4951525 -3257830,-3301055 -4886805,-7376030 -4886805,-12225042 0,-4550570 1704678,-8476383 5114150,-11777320 3409355,-3301056 7424807,-4951525 12046474,-4951525 4697369,0 8750732,1641139 12160205,4923535 3409354,3282395 5114150,7217538 5114150,11805310zm-3295741 27990c0,-3776533 -1382733,-7021608 -4138750,-9725897 -2755899,-2713500 -6051640,-4065645 -9896671,-4065645 -3731418,0 -6960786,1380017 -9697907,4149615 -2736884,2760151 -4110169,5995897 -4110169,9697907 0,3963133 1335374,7329380 3996556,10089531 2661299,2769599 6004399,4149615 10038747,4149615 3958645,0 7244938,-1398676 9868445,-4205477 2623271,-2797471 3939749,-6163837 3939749,-10089649zm11364555 -13232095l0 29765245 -3295741 0 0 -32618696 8239352 0c7690063,0 11535212,3114574 11535212,9343602 0,3058593 -1041892,5343267 -3125321,6872564 -1856319,1380016 -4384873,2070083 -7604911,2070083l10910101 14332447 -3930183 0 -12330625 -16728963c4280589,0 7027040,-167822 8239234,-503585 2879079,-783249 4318618,-2741490 4318618,-5874605 0,-2499147 -776635,-4270906 -2329788,-5315277 -1288015,-895210 -3276845,-1342815 -5966489,-1342815l-4659459 0zm54209424 16728963l0 13036282 -3182127 0 0 -13036282 -10739562 -19582414 3683941 0 8646685 15899063 8703373 -15899063 3684059 0 -10796369 19582414zm45231229 -3524858c0,4811692 -1666767,8877337 -5000418,12197052 -3333534,3319716 -7443821,4979515 -12330626,4979515 -4886804,0 -8959181,-1650469 -12217011,-4951525 -3257831,-3301055 -4886805,-7376030 -4886805,-12225042 0,-4550570 1704677,-8476383 5114150,-11777320 3409355,-3301056 7424806,-4951525 12046473,-4951525 4697370,0 8750732,1641139 12160205,4923535 3409355,3282395 5114032,7217538 5114032,11805310zm-3295741 27990c0,-3776533 -1382614,-7021608 -4138631,-9725897 -2755899,-2713500 -6051640,-4065645 -9896672,-4065645 -3731417,0 -6960785,1380017 -9697906,4149615 -2736885,2760151 -4110169,5995897 -4110169,9697907 0,3963133 1335374,7329380 3996555,10089531 2661300,2769599 6004400,4149615 10038748,4149615 3958645,0 7244937,-1398676 9868445,-4205477 2623271,-2797471 3939630,-6163837 3939630,-10089649zm8068932 -16085546l3182128 0 0 22995311c0,4886333 2481313,7329499 7443820,7329499 5000419,0 7500628,-2443166 7500628,-7329499l0 -22995311 3182127 0 0 23275094c0,3170435 -965952,5632261 -2897975,7385360 -1932023,1753099 -4526949,2629649 -7784780,2629649 -3295741,0 -5890667,-857890 -7784779,-2573669 -1894113,-1715778 -2841169,-4177605 -2841169,-7385360l0 -23331074z"/>
   <path class="fil1" d="M147948137 159534250c254272,-1546775 1911000,-4733509 3214015,-5560928 226282,2211333 -1412022,4383456 -3214015,5560928zm41119997 -57918048c3474664,-967606 14405787,-6051995 16622316,-8660267 -2255621,509372 -6207298,2571307 -8526693,3702129 -2218774,1081810 -6990902,3103826 -8095623,4958138zm-17998790 29378225c2927146,-2483557 12305115,-8746244 13828861,-11316369 -3637881,920247 -13059194,8270885 -13828861,11316369zm81945330 92075489c5782369,-1943715 11627804,-7401659 13151431,-13406058 -1840021,1493630 -3749132,4950461 -6046207,6993499 -1885845,1677396 -5812721,4576434 -7105224,6412559 -3364948,491893 -6018335,3703309 -9740777,4612691 237384,-3708860 4783702,-1616456 7288163,-6383387 1304431,-2483321 5540733,-4505810 6730133,-6884492 -2397342,1043781 -12361568,9288212 -17108422,10174209 868400,-1842974 2635435,-1215028 3524976,-4361725 -2854632,1167552 -5610413,2515326 -8071648,4374480 -3959118,515632 -7082785,-1101178 -10755860,-182348 -2761686,-2419664 -2362031,-2575322 -4782285,-3194056l-1778963 -3034855c-575273,1084408 -131920,2481195 -1162828,4352514 -3062136,-873952 -4813936,-4132963 -7052196,-5145920 527914,2292351 2652206,4156465 3632212,6376774 -6503969,-1446271 -7238560,-8259194 -9372300,-12144380l-723726 -1932731c-37320,-70152 -155894,-176916 -237739,-261595 -1479694,2472337 -1350963,5991645 5669,8572163 1548547,2945688 4347317,3492026 5960466,5562818 -5156076,-554251 -5305711,-818680 -8549724,-5518412 -3120006,-4520336 2267313,-5154541 1387930,-11117369 -3766967,2467496 -2819084,3897941 -3890146,6734267 -1956943,-2520640 -507365,-5372320 -1851832,-7604439 -2584534,1528588 -446188,6706041 559328,9068898 1583978,3722442 3631622,4134734 5201900,6373349 -3603395,-598539 -3162877,-5864331 -7050188,-6220880 -130148,5959403 7138646,8932963 10528042,12248899 -3077372,-938552 -7466969,-2092168 -9209911,-5101985l3324912 2111891c-2800069,-6090968 -7693842,-3121069 -7857530,-14359728 1638658,256989 788327,758921 2511428,1525518 -1587048,-3548597 -2651379,-4660404 -1109682,-9016933 664203,-1877814 251320,-2610752 1226130,-4370465 1040711,-1878523 1814748,-1555043 1420998,-3882942 -1333366,268563 -1859745,957803 -2703580,2001467l293128 -2481550c-2294358,1069882 -3749487,3734489 -4583402,6125100 -993588,2848963 -1803646,6018453 634087,7945279 690894,6869493 -92710,6439722 3683468,12238507 3323968,5103993 7772852,6989484 14041563,8962960 2297192,723490 2856167,1446153 4857397,2626932 3080678,1817583 7883040,3912822 11333967,4227208 -1540871,-1355451 -3298458,-1364191 -4979633,-2373014 -1367379,-820451 -3309559,-2003710 -4619423,-2867032l-2037487 -1506858c-2231410,-1365844 -5104938,-3330108 -6062033,-5780833 8244313,1605590 9303329,5449322 15845209,8861630 -1137200,-2018119 -3841725,-3069223 -4931920,-5119465 4677411,-553660 2764284,2710194 11000566,4138277 -3347233,-1882420 -5038211,-3143862 -6818827,-6066639l2001112 2139409c-11456,37439 -4134,182940 -7913,274232 2006663,813011 5148754,2265896 7265251,2301799l-3678980 -2400296c1355097,-14172 894383,163453 2128189,459770l5026991 897571c1709992,435913 577281,594759 2389785,1140152 -585311,519411 -591335,423867 -844662,624757 -98497,78184 -476304,352888 -573856,442527 -88930,81726 -203370,227109 -275885,298560 -77356,76412 -182821,224039 -272342,337535 4043914,73813 13126394,-3501356 15133765,-5832798 1120665,-1301361 2500091,-2078705 3758935,-2985016zm62140769 -83446283c-797894,-2344788 -4389125,-6373467 -6155333,-8364186 -2401595,-2707123 -4548090,-6549792 -8258249,-6702852 976345,2654450 4991088,5364289 7175848,7448191 1860926,1774829 5648442,6411495 7237734,7618847zm-16602594 -29599548c-1188337,-710971 -3526629,-2381399 -4693354,-3211298 -2022016,-544685 -1677278,-1032916 -4190951,-1164127 898753,1358640 7959806,5392279 9862776,6765800 3275782,2364629 6223360,4840273 9338169,7226868 -981660,-2281485 -8032084,-8159043 -10316640,-9617243zm-5253982 -4543247c1842738,429535 3373688,473351 4295706,2156415l12789923 7554837c-662432,-2814123 -15241002,-11511001 -19340660,-11753936 608696,1425249 820570,1400566 2255031,2042684zm-46881698 -24759748c1278685,2080595 3427188,718884 9683970,404262 1928480,-96962 3903492,-304112 5796896,-387610 2555835,-113023 4019821,195222 5579588,-961346 -1722983,-1209005 -2135394,-444888 -5200837,-373673l-14340831 512560c-1461625,320764 -741914,119047 -1518786,805807zm-76430108 88417766c2013513,-1085943 4488685,-4889757 7011452,-6736392 3025406,-2214876 4914086,-3154728 6386694,-6721748 -4608204,686996 -11996635,9192313 -13398146,13458140zm63603574 -93292760l-131801 1809197c-1799749,567714 -1348011,77592 -1595788,1567089 4557656,-276122 6272726,-1735974 10243418,-3154846 2528553,-903595 10167714,-1869193 11293694,-2606855 -5319057,-1128106 -13723397,2409625 -17255577,2896912 860369,-2036660 3168191,-1663696 5096198,-3041350 -3493324,326314 -4674812,1329233 -7650144,2529853zm5122772 3924041c881746,2509303 4810629,276003 11030091,-1024059l9689994 -1692158c1983043,-396467 1790419,-232070 2316797,-1512881 -2660118,-1283763 -20011121,2687873 -23036882,4229098zm34290304 12282558c1352617,820687 1881830,510671 3040878,1113579 2352818,1224122 180813,845489 3662682,1242310l949064 1628974c8670778,-62830 10505249,4617415 17116808,6134548 -1158340,-1685545 -5406215,-3804641 -7389140,-4970657 125424,-80073 360210,-231125 420087,-280373l458943 -391625c45705,-39446 160972,-152705 240691,-229589 -1347775,-560983 -7563458,-3066506 -8525631,-3270349 -1677160,-355486 -2738066,44642 -5329213,-649677l-3532416 -802027c-2299791,111251 -492130,-46887 -1112753,474886zm41633857 73374349l1525045 -1239358c-222386,-2853214 -1255420,-5198002 -1667948,-8017912 -194395,-1328878 -1131649,-8388751 -1388284,-9089802 -1351790,-3695869 -3705789,-11515252 -7435317,-12874246 29998,130974 4068007,9119917 5676668,14941968 1138380,4120680 3755982,12406919 3289836,16279350zm-13060257 -48123772c-2314199,-268681 -2214285,-975873 -4181975,-657471 428472,2501390 7429058,6059317 9405369,8052634 3420929,3450927 5008449,6425432 7946343,9878011 -473705,-3718426 -5362872,-9602008 -5958104,-10659489 -1623896,-2884983 -5180877,-7199704 -8409419,-8473902l1197786 1860217zm-58965373 115323537c10313452,-2114372 27139966,-17223217 27292907,-17787743 -128730,-1615038 -28226,-1513471 -1414856,-2289516 -1014492,941624 -1518667,1905923 -2838098,3104063l-9091219 7975159c-3922742,2851798 -13277681,8026770 -13948734,8998037zm25376946 -14538415l1112635 175144c-983432,953552 -2005246,1766799 -3007692,2444938 -1896002,1282110 -1208651,1400684 -2715036,2648781 -2058982,1705858 -4807794,2857466 -6917914,4379322 3567729,1354388 13470187,-8288365 16651605,-10526743 8572399,-6031799 2943799,-3625953 5780834,-7984371 1533784,-2356243 4394675,-6154625 5105056,-8808248 -2247826,1580317 -7551765,10433915 -11356524,13825909 -1554807,1386394 -3237517,2484029 -4652964,3845268zm-3698703 -134797297l-7744271 -169003c1082282,2328490 2836680,1286480 10117048,2018709 3613907,363517 7413705,671053 10997850,875605l-1345058 620033c-490830,226401 -469690,185301 -1042246,611884 -2456866,-834623 -5779534,-1483237 -8327692,-968196l20449396 5046714 -11243737 -3905145 6007824 193687c-3576114,-3856606 -10774402,-3285112 -15858200,-4249648 1338563,-1129995 12167173,8268 15272180,-217070 -631252,-570194 643536,-889068 -3475845,-1125508 -4325941,-248249 -8126566,882219 -12121941,-34721 -994769,710380 -604207,656290 -1685308,1302659zm30534321 111546532l-3389041 4728431c-1573230,-591098 111488,-388436 -1721093,-594523 -5920666,8388869 -260769,5356140 -12540374,16759550 -1724046,1600866 -4654854,2647600 -5760166,4527304 6228911,-907492 17265025,-11696302 19985612,-16838561 1756996,-3321369 4889403,-8320724 5963064,-11612213 976581,-2993992 3573634,-11292868 3411480,-14083607 -2100081,5022504 -2741254,12573324 -5949482,17113619zm-49151845 -88999888c5405979,-239747 9492174,320291 15017081,-334346 3097448,-366823 13319135,-826238 15332057,-2248299 -762227,-5818980 -8812971,-1922338 -12861019,-1401156 -3110085,400364 -8209355,1201447 -11365972,1023822 541613,-1645390 899461,-567832 2040322,-2235662 -3306607,541378 -7268558,1766563 -8162469,5195641zm-66085713 97660036l1080747 -3624890c1990483,1106257 -1416510,4219768 693374,8190813 1025829,1930724 2234717,5899762 3122131,6961258 2544852,3046075 5771740,10581542 9756249,10879512 -1549492,-2361321 -4170755,-3892272 -5465030,-7485274 4110524,1992254 5572502,7232065 10267510,8167665 -6183559,-3916955 -3148823,-3222991 -8360052,-8502719 -2276171,-2305814 -2196334,-2512374 -3400733,-5275595 -972921,-2232237 -3312276,-4215752 -1549729,-6774894 -5074704,-1983869 477367,-7703644 64838,-15434097 -3271884,1566499 -2781763,5950191 -4069188,8620702 -804389,-1580788 12873,-3586152 680265,-5422277 984730,-2709248 2255267,-2697674 1310454,-5150643l-434849 442408c-2228576,3147524 -3958291,13497941 -3695987,14408031zm131575250 -37214025c-105346,82789 -272578,81608 -314268,250966l-1052285 717467c-289348,2477888 -2166336,12320350 -3609182,13787762 -4891529,4974199 -3481042,6187102 -6339572,11261216 -2562566,4548444 -1718495,6839849 -5552543,12004429 -841355,1133420 -3151184,3770627 -4165913,4742484 -1448160,1386985 -4102256,2569063 -4971483,4312714 5773511,-2215112 15653412,-12083439 15972168,-17178575 -1784042,450912 -343676,-280373 -1887735,907610 29289,-3732362 396703,-2865969 5668046,-8987053 60704,2397106 -977644,5072342 -2039377,7251315 3822002,-609522 4865192,-11604183 6189701,-16931979 474177,-1907339 876195,-4750397 1991428,-6112580l-595586 5316340c153650,-609995 633260,-1442610 860724,-2452614 608104,-2698620 542204,-9443634 210811,-12100682 -412056,-3305307 -1474261,-12896450 -2651970,-15391345 -44052,84325 -140304,111370 -140304,249076 -473,4450066 2162084,12478843 2427340,18353449zm-38683917 -55020900c-570430,1584922 -5964363,1380016 -5990463,7076407 4567931,4405423 19251493,-4530847 19998603,5949954 289703,4065055 39682,9032287 1808725,12761933 881982,1858918 4480771,7289462 6054474,8033856 499569,-1093975 -3533479,-6259735 -4480535,-7935832 -5201900,-9206840 2475407,-17670231 -9019532,-19440809 -2663425,-410521 -9834904,-131684 -11390065,-1786640 2998362,-2201767 6711592,-1560830 10053983,-2443875 88104,-2226568 -82435,-1934267 -1415919,-3482105 -8499058,-575391 -20721975,777580 -25419817,-34250 1157749,1697001 1902025,1591654 4108633,1711409 3579776,194277 13880118,-821868 15691913,-410048zm-97732315 81404544l86569 -2604493c-2468795,1753571 -4305627,8609010 -4400227,11754290 1768452,-1368324 855291,-700815 1427966,-3034264 236911,-965126 573501,-1904506 1125862,-2711021 -26928,2315735 -1326162,3709687 -1614094,6201983l1523982 -1587638c1406117,7353118 2732279,16696956 9481899,20625367 -1385095,-1599921 -2525365,-2750466 -3348415,-4791142l2274045 1842620c-665856,-1637714 -1531540,-1848289 -1547720,-3653353l4039190 3028832c-1635824,-4698787 -5213828,-3246493 -6530424,-12083557 -249666,-1675861 145383,-3069459 -691248,-4052300l-1121846 -757739c40390,-2554654 267972,-6509638 2295539,-8180538l346982 2424388c1243491,-11923884 9280536,-11904279 9961982,-17809473 -6126635,1495756 -10436868,10124017 -13310042,15388038zm8990242 -105549691c2272510,-2741727 13799100,-4106508 17574451,-4342593 -1233216,1291086 -6073607,2423915 -8062200,2902463 -4060212,977526 -4896843,1514297 -9512251,1440130zm-17735305 8666407c3409237,-1463396 9200108,-7232655 13112221,-5204616 -6023,1119367 1263332,577871 -2990212,2693306 -1749674,870054 -2087799,816435 -3782792,2079177l-410757 -784430c-2514263,270334 -4252954,1317776 -5543803,3302472 1675152,-117865 1034687,-492483 1983160,-38973 -4281770,2615476 -11131540,8908988 -12217720,13299648l6571877 -6538218c3343336,-3435337 14665020,-11931206 18814635,-14169584 2324947,-1254238 2129961,-3000960 4237837,-1698418 -2845065,2035007 -8811672,5121354 -9806560,8292262 1513826,-546692 5433379,-3825426 7758562,-5060060 11774249,-6252176 11368924,-2800895 15480747,-3950968 2428049,-679084 -984730,-712034 4962390,-1483827 2876480,-373083 9200344,-567478 11007534,-2701455 -1109682,-953788 -1707394,-918948 -3321487,-1106493 -1729833,-201009 -2471511,108417 -3616151,-699161 6399803,-1987530 9821205,801910 11122565,-2003946 -2026976,-1004926 -1050867,419732 -2607091,-1359467 3264326,-282735 5807288,1003154 8655306,813956 -2462062,-1701607 -5232251,-598185 -6975666,-2235072l7008971 300451c-3513284,-4111350 -31534523,2368644 -34280147,3702364 -4806969,2334985 -22994485,11022651 -25163419,14551052zm67343967 132001007c1084054,-1564845 4024900,-1598740 5968497,-1611613l2325300 1603936c-4387589,1401393 -5608523,138297 -6709465,34840 -778525,-73105 -337888,355958 -1584332,-27163zm-20245907 -6402047c1366198,428472 2111064,1090313 3368727,1873562 1706331,1062323 2656930,962173 1886672,2838334 -2136220,837812 -4399518,-2697321 -5255399,-4711896zm24937844 -159883713l-4706109 -561100c-1722038,-2776567 -385720,816317 -2936594,-4110760l-1480875 65192c-1506621,-2975686 -905839,-5268627 590507,-7271392 -3952740,1076613 -5287405,1942533 -5914642,2751293 1308329,-2461945 2904707,-4994750 4618242,-5315986 -2083901,40863 -4830470,1005516 -5899525,2485447 98378,-1036223 2516861,-3063200 3868651,-4609149 -1719440,125542 -4042143,1304550 -5764299,2593037 8220575,-9796166 18845932,-3459193 20987703,-261122 -1258608,-7337766 -10804045,-10158148 -15437994,-8809192 -17611890,-33497607 20691977,-60949124 1040120,-5563291 36547814,-48522600 -34245662,-40657747 -2508122,5888896 -16517679,4760555 -13845632,28851611 4069424,29297445 225692,1903678 750181,4545373 510317,6913426 -227228,2242158 -2782945,3786926 -1891633,5266738 197820,142903 2799006,1485599 2885811,1113933 637394,-2729680 869818,-10546111 316512,-13411608 9276048,-1555279 13089310,-9157356 12183117,-15129868 -577635,2052841 -3294914,6959604 -4530611,8668061zm-73604647 123588399c248958,-1787585 1571459,-5046242 1591655,-5801737 50547,-1894348 1487843,-2128544 2970253,-3474783 111842,-101567 1964619,-836513 1415683,144556 -1080039,1930488 -3150949,2859002 -3590168,5418144 -102040,593932 -1321320,4446168 -1947967,4446168 -354659,0 -473469,-488232 -439456,-732348zm-570312 -11972896c4488,236 -1698890,2568826 -1831282,2772433 -742268,1144522 -1767862,2596580 -2222080,3683351 -338361,686051 -493310,1146765 -614955,1672553 -168058,859897 -98851,1438949 494846,1202864 -25746,-1130586 87159,-866865 463902,-832261 695737,-343912 2791920,-3540684 2977576,-4285196 536181,-808523 783958,-1022877 1172040,-1194833 33658,-22321 79954,-36375 126368,-115503 65665,-127195 385602,-1359939 664794,-3162995 35548,-481146 -552479,-151406 -1011894,126605l-5079 3070 1418 -3070 -1418 3070c-76175,46178 -148808,90821 -214236,129912zm-16726836 -43773147c-1387693,1583623 -1046970,2634018 -1735384,4670797 -413001,1221169 -1595670,2982772 -2189602,4252717 1437650,-1004807 816554,-949182 2811288,-2906124l445007 -469335c839229,-968197 449967,-620506 1495401,-1596851 809586,-755850 1018626,-1026302 1467294,-2047290 1192353,-577634 13699,-158256 603971,723372 -1247625,2585006 -3315346,3800507 -4890348,6406299 -1475324,2441867 -2695431,5659425 -2819319,8504963 2508830,-3760589 3997382,-9290811 7113018,-13112222 2401358,-2945570 6851305,-9410919 9695190,-11189528l-6084236 8463155c1269946,-1591300 7063061,-7429294 9139286,-8098339 -5341377,7171242 -15835288,13758590 -18153266,22943464 4391368,-3024698 9107044,-13118481 13894053,-14839692 -3227833,5155721 -5252093,4110051 -8522442,12785080 -1843801,4891174 -6084354,8528701 -7090815,14467082 838875,-510671 5321654,-6423424 5890195,-7907488 1336437,-3487419 6610496,-11350146 9307226,-13184617l-5939325 14093999c-601019,1696765 -2401831,3947543 -3412662,6211549 -481618,1078858 -2762276,6275797 -2870457,6964565 1351672,-1040592 1888207,-2726373 3753975,-3951204 -1427847,4377905 -3154255,5909209 -3790468,11252004 1542878,-3092370 3254641,-6957597 5461250,-9668971 -1366553,7623217 -2712201,4067180 -1943006,14590143 14054,-1689324 5008095,-10750899 6201156,-11787358 -1154914,4593558 -4335152,12662727 -4160716,17196880 559447,-828600 2587250,-6332485 3294796,-7921305 1192471,-2678306 2157006,-5016834 3629496,-7525665 -701523,4983766 -2676889,8148296 -3735079,12553129 -1010949,4207957 1168261,-1166135 -1223886,6078685 -613655,1858682 -1730423,4802835 -1048151,6456256 610939,-2112600 -239155,-2696376 1605472,-4509234l-190261 2984779c998076,-2221843 966779,-4243623 2635908,-6613685l1504023 2239914c-1543115,2987732 -3390931,9310415 -2027804,12432429 627710,-1665940 -439101,-3064735 616845,-5224575l300450 536062c346274,1306676 18660,1477450 810294,2505406 980716,-1104249 1219281,-9970603 4639146,-13070059 -995241,6440312 -3848456,18302075 -896390,24176326 339660,-957921 6141,-2889708 12164,-4158945 9448,-2059809 318638,-2454622 597948,-4232522 477485,-3037217 444771,-5330394 1507920,-8341274 1165781,2010560 -2027685,8823246 1831283,10127205 -561337,-5078011 67554,-7266432 2439623,-11628276 131565,2008080 -472761,4061039 -559093,6103841 -139596,3298576 938789,4484433 971858,6653013 47358,3083040 407568,10876914 2620790,12889954 -769195,-5572856 -1127751,-6986059 -1023467,-12727682 647432,3618984 2192909,12358497 5417198,14086677 -1104249,-2714092 -1277150,-1800812 -1927417,-5109663 -1706094,-8681879 -4305981,-5684698 -241399,-21251187 1965327,-7526374 8555156,-14105810 8634048,-16817657 -7763049,3023990 -9867500,18469661 -13048683,25617873 -789745,-4252717 867220,-12694260 3218739,-16262697 2030401,-3081387 8431504,-8974417 8153965,-11745787 -1846990,342731 -2263652,1640430 -4091627,2331324 1178889,-3933253 7294186,-9228335 7807219,-10900298 -1969461,800492 -3132052,2524184 -4077809,2989268 -916586,451030 -907847,-178452 -4012972,2519460 -1713417,1488905 -1662043,2093821 -3889319,3303417 -1689797,917767 -3518008,2544970 -4778860,3091544l3005566 -5771858c-2150275,593697 -1237822,685816 -2906479,1695466 954497,-3413371 3352666,-4509825 4479827,-7416303 -1880294,1524100 -3030957,3998090 -5227882,4913495l1915134 -3505843c-2704761,1671963 -4654499,3963014 -6386339,6683128 -1454775,2284910 -2710666,7174904 -4574545,8401034 309899,-3719489 2852743,-7814187 4485260,-11016982 2723185,-5342559 6549910,-8432921 9912024,-13182964 1528825,-2159959 1649524,-3907035 2590085,-5317876 1827621,-2742199 7057038,-5026637 7880324,-8035155 -6838078,2416121 -10078548,11149138 -13802053,12665444 491657,-3039107 1188102,-2877780 2180863,-5061714 -4415343,2316089 -8607239,11314362 -12193273,14961692 930994,-4208194 7864144,-12666625 9953596,-16829231 -410285,-1384740 163570,457525 -316630,-678611 -77593,-183412 -204198,-515395 -226401,-667510 4603243,-5158084 12593283,-7446301 16272736,-13613798 -6069355,1741879 -15649514,10116458 -18498831,15711045l1303958 -463667c-3522141,3278144 -6374057,7617430 -8547951,12356254 -1871201,4078990 -2563394,2848963 -4545728,5667928 -1696174,2411987 -2480486,4375071 -3824127,6708993 -42871,-4241970 2756844,-8300647 4619305,-11915971l3134178 -5260360c3399552,-6435824 5845316,-7050543 7181163,-10920021 733764,-2124410 5462431,-7267731 6941062,-8637000 1007052,-932412 3365894,-3474311 4144891,-4640091 -2252786,986030 -4760908,3069341 -6310636,4837320 -927688,1058544 -3478917,2449190 -6180371,5490776 -3138548,3533834 -6819300,10583314 -10299516,12693197 490594,-4156228 3632331,-7232773 5895864,-10264557 3025407,-4052063 15933667,-17786089 19642409,-21013449 1432572,-1246798 4374362,-2534813 5200364,-3486357 -3991477,542440 -6041483,3285702 -9758728,4415107 727151,-1734557 8264154,-8322378 10153896,-10136772 -1944541,707192 -3462736,2035126 -5083680,3322787 -2873764,2283138 -2998007,1723219 -5940388,3157680 -4955422,2416121 -5215836,5296735 -11236887,6828039 1285298,-2702280 11228620,-11085126 14291937,-12962704 4105327,-2516389 9603661,-5560220 14329376,-6653486 3239170,-749118 3927229,486697 4660876,-3098039 -6042310,584485 -8493271,3719962 -13497350,5184421l646842 -1938637c-4664892,1701253 -13053879,7696204 -14862486,8281043 1048033,-2759442 7655813,-6975667 10353370,-8764787 7320050,-4856098 12073164,-3436281 11364673,-7166990l-2500209 -84561c1024176,-1681175 -168531,-336117 1519376,-1620943l-9911671 3258893c3352312,-3157326 9520282,-4630642 13678046,-6322211 1456546,-592633 3548478,-1512762 4053362,-2888408 -13164186,-4779923 -20851886,12993765 -27822592,12313146l2210506 -3370027c-3629496,1036577 -6152853,3441360 -8495042,6123564 -2058628,2357424 39682,2233772 -5930232,7851507 -1903560,1791246 -3535014,3717364 -4044623,6441729l2199877 -1806244c-837930,2201176 -4754294,5757331 -6429328,10146338zm4511832 -618380c-1486307,1003391 -4757956,2776094 -4941840,4315784l1219162 -3382900c4527540,-7036489 13481407,-11455375 16919224,-17901592l-6399685 4440263c1339153,-2738066 1537918,-3506553 4416879,-4804252 2151337,-969496 4458922,-1947612 6767453,-2454150 -108299,261359 -8312458,9764634 -8958473,10280619 -1549846,1238177 -3784327,3094969 -5041872,4393968 -1667711,1722510 -2427340,3309795 -3980848,5112260zm3156618 8751559c832970,-2029102 2598824,-3806176 3880107,-5652811 1331595,-1919268 2255975,-4190715 4715321,-4587772 -1512408,3849637 -5469990,7854342 -8595428,10240583zm8844859 -5952907c1071653,-2767355 4265236,-5934838 6633998,-7595109 -321118,1970996 -4616352,6703915 -6633998,7595109zm-908437 -20974476c542558,-1616219 1612794,-2433954 2844593,-3858259 1618818,-1871200 2361676,-1797623 4814054,-2093349 -701759,2488163 -5274296,4944084 -7658647,5951608zm8631331 -5042817c945875,-2364628 3115046,-2548867 5677613,-2976512 -1074252,1994616 -3383018,2351519 -5677613,2976512z"/>
  </g>
 </g>
</svg>
